<svg width="1024" height="1024" viewBox="0 0 1024 1024" fill="none" xmlns="http://www.w3.org/2000/svg">
  <defs>
    <linearGradient id="bgGradient" x1="184" y1="156" x2="852" y2="900" gradientUnits="userSpaceOnUse">
      <stop offset="0" stop-color="#F1F4FB"/>
      <stop offset="0.55" stop-color="#E6ECF8"/>
      <stop offset="1" stop-color="#F8EEE8"/>
    </linearGradient>
    <radialGradient id="blueGlow" cx="0" cy="0" r="1" gradientUnits="userSpaceOnUse" gradientTransform="translate(344 280) rotate(90) scale(314)">
      <stop stop-color="#59A7FF" stop-opacity="0.42"/>
      <stop offset="1" stop-color="#59A7FF" stop-opacity="0"/>
    </radialGradient>
    <radialGradient id="warmGlow" cx="0" cy="0" r="1" gradientUnits="userSpaceOnUse" gradientTransform="translate(752 766) rotate(90) scale(292)">
      <stop stop-color="#FFB16A" stop-opacity="0.28"/>
      <stop offset="1" stop-color="#FFB16A" stop-opacity="0"/>
    </radialGradient>
    <linearGradient id="glassFill" x1="290" y1="244" x2="744" y2="792" gradientUnits="userSpaceOnUse">
      <stop stop-color="white" stop-opacity="0.64"/>
      <stop offset="1" stop-color="white" stop-opacity="0.26"/>
    </linearGradient>
    <linearGradient id="glassStroke" x1="250" y1="250" x2="774" y2="774" gradientUnits="userSpaceOnUse">
      <stop stop-color="white" stop-opacity="0.86"/>
      <stop offset="1" stop-color="white" stop-opacity="0.34"/>
    </linearGradient>
    <linearGradient id="faceGradient" x1="430" y1="352" x2="650" y2="676" gradientUnits="userSpaceOnUse">
      <stop stop-color="#FFE773"/>
      <stop offset="0.55" stop-color="#FFC92D"/>
      <stop offset="1" stop-color="#F39A00"/>
    </linearGradient>
    <radialGradient id="faceHighlight" cx="0" cy="0" r="1" gradientUnits="userSpaceOnUse" gradientTransform="translate(480 388) rotate(60) scale(220)">
      <stop stop-color="white" stop-opacity="0.74"/>
      <stop offset="0.4" stop-color="white" stop-opacity="0.18"/>
      <stop offset="1" stop-color="white" stop-opacity="0"/>
    </radialGradient>
    <linearGradient id="cellFill" x1="0" y1="0" x2="1" y2="1">
      <stop stop-color="white" stop-opacity="0.8"/>
      <stop offset="1" stop-color="white" stop-opacity="0.44"/>
    </linearGradient>
    <linearGradient id="selectedCell" x1="0" y1="0" x2="1" y2="1">
      <stop stop-color="#48A0FF"/>
      <stop offset="1" stop-color="#0E6EF6"/>
    </linearGradient>
    <filter id="shadowLg" x="132" y="132" width="760" height="760" filterUnits="userSpaceOnUse" color-interpolation-filters="sRGB">
      <feFlood flood-opacity="0" result="BackgroundImageFix"/>
      <feColorMatrix in="SourceAlpha" type="matrix" values="0 0 0 0 0 0 0 0 0 0 0 0 0 0 0 0 0 0 127 0" result="hardAlpha"/>
      <feOffset dy="24"/>
      <feGaussianBlur stdDeviation="28"/>
      <feComposite in2="hardAlpha" operator="out"/>
      <feColorMatrix type="matrix" values="0 0 0 0 0.0784314 0 0 0 0 0.113725 0 0 0 0 0.196078 0 0 0 0.18 0"/>
      <feBlend mode="normal" in2="BackgroundImageFix" result="effect1_dropShadow_1_1"/>
      <feBlend mode="normal" in="SourceGraphic" in2="effect1_dropShadow_1_1" result="shape"/>
    </filter>
    <filter id="shadowMd" x="300" y="248" width="472" height="500" filterUnits="userSpaceOnUse" color-interpolation-filters="sRGB">
      <feFlood flood-opacity="0" result="BackgroundImageFix"/>
      <feColorMatrix in="SourceAlpha" type="matrix" values="0 0 0 0 0 0 0 0 0 0 0 0 0 0 0 0 0 0 127 0" result="hardAlpha"/>
      <feOffset dy="18"/>
      <feGaussianBlur stdDeviation="18"/>
      <feComposite in2="hardAlpha" operator="out"/>
      <feColorMatrix type="matrix" values="0 0 0 0 0.160784 0 0 0 0 0.219608 0 0 0 0 0.341176 0 0 0 0.22 0"/>
      <feBlend mode="normal" in2="BackgroundImageFix" result="effect1_dropShadow_1_1"/>
      <feBlend mode="normal" in="SourceGraphic" in2="effect1_dropShadow_1_1" result="shape"/>
    </filter>
    <filter id="selectedGlow" x="520" y="378" width="156" height="156" filterUnits="userSpaceOnUse" color-interpolation-filters="sRGB">
      <feFlood flood-opacity="0" result="BackgroundImageFix"/>
      <feBlend mode="normal" in="SourceGraphic" in2="BackgroundImageFix" result="shape"/>
      <feGaussianBlur stdDeviation="10" result="effect1_foregroundBlur_1_1"/>
    </filter>
    <filter id="bgBlur" x="140" y="140" width="744" height="744" filterUnits="userSpaceOnUse" color-interpolation-filters="sRGB">
      <feFlood flood-opacity="0" result="BackgroundImageFix"/>
      <feBlend mode="normal" in="SourceGraphic" in2="BackgroundImageFix" result="shape"/>
      <feGaussianBlur stdDeviation="32" result="effect1_foregroundBlur_1_1"/>
    </filter>
  </defs>

  <rect x="80" y="80" width="864" height="864" rx="196" fill="url(#bgGradient)"/>

  <g filter="url(#bgBlur)">
    <circle cx="338" cy="278" r="154" fill="url(#blueGlow)"/>
    <circle cx="754" cy="758" r="146" fill="url(#warmGlow)"/>
    <circle cx="666" cy="332" r="112" fill="#FFFFFF" fill-opacity="0.18"/>
  </g>

  <g opacity="0.68" fill="white">
    <circle cx="238" cy="238" r="4"/>
    <circle cx="276" cy="238" r="4"/>
    <circle cx="314" cy="238" r="4"/>
    <circle cx="352" cy="238" r="4"/>
    <circle cx="238" cy="276" r="4"/>
    <circle cx="276" cy="276" r="4"/>
    <circle cx="314" cy="276" r="4"/>
    <circle cx="352" cy="276" r="4"/>
    <circle cx="706" cy="760" r="4"/>
    <circle cx="744" cy="760" r="4"/>
    <circle cx="782" cy="760" r="4"/>
    <circle cx="820" cy="760" r="4"/>
    <circle cx="706" cy="798" r="4"/>
    <circle cx="744" cy="798" r="4"/>
    <circle cx="782" cy="798" r="4"/>
    <circle cx="820" cy="798" r="4"/>
  </g>

  <g filter="url(#shadowLg)">
    <rect x="250" y="250" width="524" height="524" rx="156" fill="url(#glassFill)"/>
    <rect x="250.75" y="250.75" width="522.5" height="522.5" rx="155.25" stroke="url(#glassStroke)" stroke-width="1.5"/>

    <rect x="302" y="302" width="420" height="68" rx="30" fill="white" fill-opacity="0.24"/>
    <circle cx="344" cy="336" r="10" fill="#0E6EF6" fill-opacity="0.86"/>
    <circle cx="378" cy="336" r="10" fill="white" fill-opacity="0.72"/>
    <circle cx="412" cy="336" r="10" fill="white" fill-opacity="0.52"/>

    <g opacity="0.98">
      <rect x="320" y="404" width="84" height="84" rx="24" fill="url(#cellFill)"/>
      <rect x="424" y="404" width="84" height="84" rx="24" fill="url(#cellFill)"/>
      <rect x="528" y="404" width="84" height="84" rx="24" fill="url(#cellFill)"/>
      <rect x="632" y="404" width="84" height="84" rx="24" fill="url(#cellFill)"/>

      <rect x="320" y="508" width="84" height="84" rx="24" fill="url(#cellFill)"/>
      <rect x="424" y="508" width="84" height="84" rx="24" fill="url(#cellFill)"/>
      <rect x="528" y="508" width="84" height="84" rx="24" fill="url(#selectedCell)"/>
      <rect x="632" y="508" width="84" height="84" rx="24" fill="url(#cellFill)"/>

      <rect x="320" y="612" width="84" height="84" rx="24" fill="url(#cellFill)"/>
      <rect x="424" y="612" width="84" height="84" rx="24" fill="url(#cellFill)"/>
      <rect x="528" y="612" width="84" height="84" rx="24" fill="url(#cellFill)"/>
      <rect x="632" y="612" width="84" height="84" rx="24" fill="url(#cellFill)"/>
    </g>

    <g opacity="0.5">
      <rect x="320.75" y="404.75" width="82.5" height="82.5" rx="23.25" stroke="white" stroke-opacity="0.68" stroke-width="1.5"/>
      <rect x="424.75" y="404.75" width="82.5" height="82.5" rx="23.25" stroke="white" stroke-opacity="0.68" stroke-width="1.5"/>
      <rect x="528.75" y="404.75" width="82.5" height="82.5" rx="23.25" stroke="white" stroke-opacity="0.68" stroke-width="1.5"/>
      <rect x="632.75" y="404.75" width="82.5" height="82.5" rx="23.25" stroke="white" stroke-opacity="0.68" stroke-width="1.5"/>
      <rect x="320.75" y="508.75" width="82.5" height="82.5" rx="23.25" stroke="white" stroke-opacity="0.68" stroke-width="1.5"/>
      <rect x="424.75" y="508.75" width="82.5" height="82.5" rx="23.25" stroke="white" stroke-opacity="0.68" stroke-width="1.5"/>
      <rect x="528.75" y="508.75" width="82.5" height="82.5" rx="23.25" stroke="white" stroke-opacity="0.24" stroke-width="1.5"/>
      <rect x="632.75" y="508.75" width="82.5" height="82.5" rx="23.25" stroke="white" stroke-opacity="0.68" stroke-width="1.5"/>
      <rect x="320.75" y="612.75" width="82.5" height="82.5" rx="23.25" stroke="white" stroke-opacity="0.68" stroke-width="1.5"/>
      <rect x="424.75" y="612.75" width="82.5" height="82.5" rx="23.25" stroke="white" stroke-opacity="0.68" stroke-width="1.5"/>
      <rect x="528.75" y="612.75" width="82.5" height="82.5" rx="23.25" stroke="white" stroke-opacity="0.68" stroke-width="1.5"/>
      <rect x="632.75" y="612.75" width="82.5" height="82.5" rx="23.25" stroke="white" stroke-opacity="0.68" stroke-width="1.5"/>
    </g>

    <g filter="url(#selectedGlow)">
      <rect x="548" y="516" width="44" height="44" rx="14" fill="white" fill-opacity="0.32"/>
      <rect x="548" y="516" width="44" height="44" rx="14" fill="url(#selectedCell)"/>
    </g>
  </g>

  <g filter="url(#shadowMd)">
    <circle cx="512" cy="508" r="168" fill="url(#faceGradient)"/>
    <circle cx="512" cy="508" r="168" fill="url(#faceHighlight)"/>
    <circle cx="512" cy="508" r="168" stroke="#F3A100" stroke-width="8" stroke-opacity="0.35"/>
  </g>

  <ellipse cx="444" cy="442" rx="44" ry="34" fill="#8C4A00" fill-opacity="0.18"/>
  <ellipse cx="580" cy="442" rx="44" ry="34" fill="#8C4A00" fill-opacity="0.18"/>
  <path d="M414 450C426 416 454 416 466 450" stroke="#6B3600" stroke-width="16" stroke-linecap="round"/>
  <path d="M558 450C570 416 598 416 610 450" stroke="#6B3600" stroke-width="16" stroke-linecap="round"/>
  <path d="M404 572C442 622 582 622 620 572" stroke="#6B3600" stroke-width="18" stroke-linecap="round"/>

  <circle cx="642" cy="394" r="22" fill="white" fill-opacity="0.32"/>
  <circle cx="638" cy="388" r="10" fill="white" fill-opacity="0.42"/>
</svg>
